<?xml version="1.0" encoding="UTF-8" standalone="no"?>
<!DOCTYPE svg PUBLIC "-//W3C//DTD SVG 1.1//EN" "http://www.w3.org/Graphics/SVG/1.1/DTD/svg11.dtd">
<svg width="100%" height="100%" viewBox="0 0 100 44" version="1.1" xmlns="http://www.w3.org/2000/svg" xmlns:xlink="http://www.w3.org/1999/xlink" xml:space="preserve" xmlns:serif="http://www.serif.com/" style="fill-rule:evenodd;clip-rule:evenodd;stroke-linejoin:round;stroke-miterlimit:2;">
    <g transform="matrix(0.765269,0,0,0.765269,-419.805,-125.45)">
        <g transform="matrix(-0.999834,-0.0182424,-0.0182424,0.999834,644.21,176.759)">
            <path d="M-0.072,-4.002C1.114,-3.98 1.989,-3.098 1.968,-1.946C1.947,-0.797 1.088,0.021 -0.072,0C-1.233,-0.021 -2.099,-0.889 -2.078,-2.02C-2.058,-3.134 -1.155,-4.021 -0.072,-4.002" style="fill-rule:nonzero;"/>
        </g>
        <g transform="matrix(-0.999838,-0.0179926,-0.0179926,0.999838,650.158,176.759)">
            <path d="M-0.072,-4.002C1.113,-3.98 1.989,-3.098 1.968,-1.947C1.948,-0.798 1.088,0.021 -0.072,0C-1.232,-0.021 -2.097,-0.889 -2.077,-2.019C-2.057,-3.133 -1.154,-4.021 -0.072,-4.002" style="fill-rule:nonzero;"/>
        </g>
        <g transform="matrix(1,0,0,1,578.892,214.195)">
            <path d="M0,-14.789C-1.354,-13.852 -2.127,-13.191 -2.106,-11.582C-2.095,-10.458 -1.808,-9.61 -1.315,-8.968C-0.213,-7.518 1.935,-7.147 4.306,-7.147C5.327,-7.147 6.39,-7.216 7.429,-7.296C10.008,-7.502 12.14,-7.747 13.816,-7.747C13.956,-7.747 14.093,-7.745 14.227,-7.742C19.298,-7.607 19.801,-4.849 19.73,-2.556C19.703,-1.646 19.513,-0.797 19.167,0C19.167,0 22.034,-2.062 21.708,-6.324C21.698,-6.458 21.708,-6.588 21.698,-6.722L21.698,-6.727C21.568,-8.279 20.983,-9.496 19.932,-10.427C18.642,-11.576 16.735,-12.187 14.271,-12.254C14.126,-12.258 13.98,-12.26 13.831,-12.26C13.233,-12.26 12.604,-12.226 11.957,-12.156C10.17,-11.971 6.904,-11.345 4.184,-11.345C1.644,-11.345 -0.42,-11.891 -0.36,-13.853C-0.346,-14.31 0,-14.789 0,-14.789" style="fill-rule:nonzero;"/>
        </g>
        <g transform="matrix(1,0,0,1,611.571,201.948)">
            <path d="M0,-35.967C-1.515,-35.319 -3.372,-34.866 -5.39,-34.606C-5.031,-34.154 -4.876,-33.295 -4.876,-31.693L-4.876,-4.201C-4.876,-0.006 -5.306,0 -5.306,0C-5.306,0 -2.878,-0.007 -1.202,-0.007C-0.364,-0.007 0.286,-0.005 0.35,0C0.326,-0.065 0,-0.006 0,-4.201L0,-35.967Z" style="fill-rule:nonzero;"/>
        </g>
        <g transform="matrix(1,0,0,1,649.794,201.948)">
            <path d="M0,-21.282C-1.515,-20.634 -3.372,-20.314 -5.39,-20.054C-5.031,-19.601 -4.877,-18.61 -4.877,-17.008L-4.877,-4.201C-4.877,-0.006 -5.306,0 -5.306,0C-5.306,0 -2.877,-0.007 -1.202,-0.007C-0.364,-0.007 0.286,-0.005 0.35,0C0.327,-0.065 0,-0.006 0,-4.201L0,-21.282Z" style="fill-rule:nonzero;"/>
        </g>
        <g transform="matrix(1,0,0,1,661.903,189.025)">
            <path d="M0,-7.132C-2.168,-6.371 -3.766,-4.946 -3.766,-2.614C-3.766,-2.093 -3.676,-1.526 -3.375,-1.078C-2.98,-0.434 -2.276,0 -1.464,0C-0.377,0 0.53,-0.774 0.738,-1.8C0.767,-1.933 0.783,-2.072 0.783,-2.218L0.782,-2.241L0.783,-2.248L0.782,-2.261C0.78,-2.363 0.77,-2.478 0.747,-2.605C0.687,-2.982 0.533,-3.324 0.309,-3.613L0.251,-3.699C0.039,-3.986 -0.167,-4.232 -0.335,-4.471C-0.389,-4.543 -0.437,-4.62 -0.482,-4.699C-0.507,-4.743 -0.531,-4.787 -0.553,-4.831L-0.59,-4.914C-0.634,-5.016 -0.669,-5.12 -0.688,-5.229C-0.715,-5.359 -0.731,-5.493 -0.731,-5.631C-0.731,-6.241 -0.442,-6.779 0,-7.132" style="fill-rule:nonzero;"/>
        </g>
        <g transform="matrix(1,0,0,1,667.655,201.941)">
            <path d="M0,-21.275C1.598,-20.483 2.081,-19.382 2.098,-17.898C2.1,-17.883 2.098,-4.738 2.098,-4.194C2.098,-0.001 5.093,0 5.528,0L5.529,0C7.486,0 8.76,-1.278 8.76,-1.278L8.754,-1.283C7.729,-1.31 6.906,-1.935 6.906,-4.194L6.906,-15.765C6.906,-19.881 2.612,-21.275 0,-21.275" style="fill-rule:nonzero;"/>
        </g>
        <g transform="matrix(1,0,0,1,665.422,201.943)">
            <path d="M0,-10.86L-0.058,-10.856C-3.17,-10.68 -8.49,-8.717 -8.49,-4.056C-8.49,-1.365 -6.72,0 -3.778,0C-1.869,0 -0.313,-0.187 1.335,-1.223C1.093,-1.186 0.832,-1.167 0.571,-1.167C-1.623,-1.167 -3.291,-3.044 -3.291,-5.574C-3.291,-7.234 -2.638,-9.301 0,-10.86" style="fill-rule:nonzero;"/>
        </g>
        <g transform="matrix(1,0,0,1,623.76,189.025)">
            <path d="M0,-7.132C-2.168,-6.371 -3.766,-4.946 -3.766,-2.614C-3.766,-2.093 -3.676,-1.526 -3.375,-1.078C-2.98,-0.434 -2.276,0 -1.464,0C-0.377,0 0.53,-0.774 0.738,-1.8C0.767,-1.933 0.783,-2.072 0.783,-2.218L0.782,-2.241L0.783,-2.248L0.782,-2.261C0.78,-2.363 0.77,-2.478 0.747,-2.605C0.687,-2.982 0.533,-3.324 0.309,-3.613L0.251,-3.699C0.039,-3.986 -0.167,-4.232 -0.335,-4.471C-0.389,-4.543 -0.437,-4.62 -0.482,-4.699C-0.507,-4.743 -0.531,-4.787 -0.553,-4.831L-0.59,-4.914C-0.634,-5.016 -0.669,-5.12 -0.688,-5.229C-0.715,-5.359 -0.731,-5.493 -0.731,-5.631C-0.731,-6.241 -0.442,-6.779 0,-7.132" style="fill-rule:nonzero;"/>
        </g>
        <g transform="matrix(1,0,0,1,629.512,201.941)">
            <path d="M0,-21.275C1.598,-20.483 2.081,-19.382 2.098,-17.898C2.1,-17.883 2.098,-4.738 2.098,-4.194C2.098,-0.001 5.093,0 5.528,0L5.529,0C7.486,0 8.76,-1.278 8.76,-1.278L8.754,-1.283C7.729,-1.31 6.906,-1.935 6.906,-4.194L6.906,-15.765C6.906,-19.881 2.612,-21.275 0,-21.275" style="fill-rule:nonzero;"/>
        </g>
        <g transform="matrix(1,0,0,1,627.28,201.943)">
            <path d="M0,-10.86L-0.058,-10.856C-3.17,-10.68 -8.49,-8.717 -8.49,-4.056C-8.49,-1.365 -6.72,0 -3.778,0C-1.869,0 -0.313,-0.187 1.335,-1.223C1.093,-1.186 0.832,-1.167 0.571,-1.167C-1.623,-1.167 -3.291,-3.044 -3.291,-5.574C-3.291,-7.234 -2.638,-9.301 0,-10.86" style="fill-rule:nonzero;"/>
        </g>
        <g transform="matrix(1,0,0,1,556.621,189.025)">
            <path d="M0,-7.132C-2.169,-6.371 -3.766,-4.946 -3.766,-2.614C-3.766,-2.093 -3.676,-1.526 -3.376,-1.078C-2.98,-0.434 -2.276,0 -1.464,0C-0.377,0 0.53,-0.774 0.737,-1.8C0.767,-1.933 0.783,-2.072 0.783,-2.218L0.782,-2.241L0.783,-2.248L0.782,-2.261C0.78,-2.363 0.77,-2.478 0.747,-2.605C0.686,-2.982 0.532,-3.324 0.309,-3.613L0.251,-3.699C0.039,-3.986 -0.167,-4.232 -0.335,-4.471C-0.39,-4.543 -0.437,-4.62 -0.482,-4.699C-0.507,-4.743 -0.531,-4.787 -0.553,-4.831L-0.59,-4.914C-0.634,-5.016 -0.669,-5.12 -0.688,-5.229C-0.716,-5.359 -0.731,-5.493 -0.731,-5.631C-0.731,-6.241 -0.443,-6.779 0,-7.132" style="fill-rule:nonzero;"/>
        </g>
        <g transform="matrix(1,0,0,1,562.372,201.941)">
            <path d="M0,-21.275C1.597,-20.483 2.08,-19.382 2.098,-17.898C2.1,-17.883 2.098,-4.738 2.098,-4.194C2.098,-0.001 5.093,0 5.528,0L5.529,0C7.486,0 8.76,-1.278 8.76,-1.278L8.754,-1.283C7.729,-1.31 6.905,-1.935 6.905,-4.194L6.905,-15.765C6.905,-19.881 2.612,-21.275 0,-21.275" style="fill-rule:nonzero;"/>
        </g>
        <g transform="matrix(1,0,0,1,560.14,201.943)">
            <path d="M0,-10.86L-0.058,-10.856C-3.17,-10.68 -8.491,-8.717 -8.491,-4.056C-8.491,-1.365 -6.721,0 -3.778,0C-1.869,0 -0.313,-0.187 1.334,-1.223C1.093,-1.186 0.832,-1.167 0.571,-1.167C-1.623,-1.167 -3.291,-3.044 -3.291,-5.574C-3.291,-7.234 -2.638,-9.301 0,-10.86" style="fill-rule:nonzero;"/>
        </g>
        <g transform="matrix(1,0,0,1,584.691,198.111)">
            <path d="M0,-17.45L-0.009,-17.445L-0.145,-17.45C-4.431,-17.45 -7.905,-13.544 -7.905,-8.725C-7.905,-3.907 -4.431,0 -0.145,0L-0.038,-0.005C-0.038,-0.005 -2.59,-3.157 -2.59,-8.954C-2.59,-14.993 -0.009,-17.445 -0.004,-17.445L0,-17.45Z" style="fill-rule:nonzero;"/>
        </g>
        <g transform="matrix(1,0,0,1,589.868,198.111)">
            <path d="M0,-17.45L-0.106,-17.445C-0.106,-17.445 2.445,-14.294 2.445,-8.496C2.445,-2.457 -0.135,-0.005 -0.14,-0.005L-0.145,0L-0.135,-0.005L0,0C4.286,0 7.761,-3.907 7.761,-8.725C7.761,-13.544 4.286,-17.45 0,-17.45" style="fill-rule:nonzero;"/>
        </g>
        <g transform="matrix(1,0,0,1,597.069,181.889)">
            <path d="M0,-5.016C-1.292,-5.016 -2.546,-4.392 -3.677,-3.42C-3.448,-3.509 -3.204,-3.556 -2.958,-3.556C-2.636,-3.556 -2.31,-3.475 -2.011,-3.303C-1.891,-3.234 -1.783,-3.153 -1.684,-3.064C-1.599,-2.994 -1.527,-2.912 -1.461,-2.823L-1.407,-2.749C-1.379,-2.708 -1.354,-2.665 -1.329,-2.621C-1.282,-2.543 -1.239,-2.463 -1.204,-2.38C-1.081,-2.115 -0.97,-1.814 -0.828,-1.486L-0.783,-1.393C-0.643,-1.055 -0.424,-0.751 -0.128,-0.51C-0.03,-0.427 0.066,-0.361 0.152,-0.308L0.163,-0.301L0.17,-0.298L0.19,-0.286C0.315,-0.213 0.443,-0.157 0.573,-0.116C0.806,-0.038 1.047,0 1.285,0C2.062,0 2.817,-0.403 3.233,-1.125C3.639,-1.827 3.615,-2.654 3.255,-3.318C3.017,-3.802 2.57,-4.164 2.119,-4.424C1.41,-4.833 0.699,-5.016 0,-5.016" style="fill-rule:nonzero;"/>
        </g>
        <g transform="matrix(1,0,0,1,581.889,219.624)">
            <path d="M0,-10.053C-0.208,-10.053 -0.419,-10.043 -0.632,-10.021C-3.724,-9.7 -6.328,-7.12 -6.035,-4.296C-5.752,-1.562 -2.945,0 0.058,0C0.151,0 0.244,-0.001 0.338,-0.004C2.454,-0.073 3.855,-0.349 4.748,-0.544L4.776,-0.541L4.75,-0.545L4.787,-0.553C4.651,-0.564 4.515,-0.585 4.379,-0.602L4.303,-0.614C4.46,-0.595 4.616,-0.574 4.774,-0.563L3.52,-0.74C3.427,-0.758 3.331,-0.772 3.239,-0.793L3.195,-0.805L3.09,-0.827C2.937,-0.855 2.789,-0.889 2.646,-0.929L2.615,-0.937C0.313,-1.594 -1.247,-2.93 -1.485,-5.233L-1.501,-5.385C-1.716,-7.46 -0.885,-9.034 0.348,-10.045L0.336,-10.044C0.225,-10.05 0.113,-10.053 0,-10.053" style="fill-rule:nonzero;"/>
        </g>
    </g>
</svg>
