<?xml version="1.0" standalone="no"?>
<!DOCTYPE svg PUBLIC "-//W3C//DTD SVG 1.1//EN" "http://www.w3.org/Graphics/SVG/1.1/DTD/svg11.dtd">
<svg width="100%" height="100%" viewBox="0 0 230 170" version="1.1" xmlns="http://www.w3.org/2000/svg" xmlns:xlink="http://www.w3.org/1999/xlink" xml:space="preserve" style="fill-rule:evenodd;clip-rule:evenodd;stroke-linejoin:round;stroke-miterlimit:1.41421;">
    <g id="Layer 1" transform="matrix(0.10121,0,0,0.103416,-27.9793,-61.3902)">
        <g transform="matrix(0.98783,0,0,0.992729,12.2289,-80.6141)">
            <path d="M397.777,1946.33C382.223,1946.33 367.905,1950.13 354.753,1957.71C341.624,1965.34 331.176,1976.09 323.411,1989.92C315.645,2003.7 311.774,2018.27 311.774,2033.66C311.774,2048.94 315.692,2063.56 323.527,2077.53C331.316,2091.43 341.88,2102.3 355.055,2110.06C368.278,2117.78 382.433,2121.72 397.544,2121.72C412.841,2121.72 427.323,2117.8 440.988,2110.15C454.631,2102.43 465.147,2092.03 472.54,2078.88C479.885,2065.68 483.57,2050.92 483.57,2034.46C483.57,2009.41 475.315,1988.45 458.804,1971.57C442.248,1954.73 421.913,1946.33 397.777,1946.33M509.315,1924.95L509.315,2141.8L481.751,2141.8L481.751,2104.56C470.091,2118.78 456.986,2129.46 442.434,2136.64C427.882,2143.83 411.932,2147.37 394.675,2147.37C363.987,2147.37 337.776,2136.27 316.042,2114C294.332,2091.78 283.464,2064.66 283.464,2032.78C283.464,2001.55 294.424,1974.83 316.345,1952.65C338.265,1930.48 364.64,1919.35 395.468,1919.35C413.285,1919.35 429.376,1923.18 443.834,1930.76C458.245,1938.31 470.884,1949.67 481.751,1964.85L481.751,1924.95L509.315,1924.95Z" style="fill:rgb(3,4,4);fill-rule:nonzero;"/>
        </g>
        <g transform="matrix(0.98783,0,0,0.992729,12.2289,-80.6141)">
            <path d="M684.865,1946.33C669.054,1946.33 654.41,1950.13 640.814,1957.74C627.265,1965.41 616.655,1975.95 608.936,1989.45C601.241,2002.93 597.37,2017.48 597.37,2033.18C597.37,2056.99 605.345,2076.64 621.296,2092.2C637.223,2107.75 657.908,2115.52 683.256,2115.52C708.931,2115.52 729.569,2107.82 745.17,2092.38C760.77,2076.99 768.606,2056.73 768.606,2031.59C768.606,2015.24 764.991,2000.67 757.855,1987.84C750.65,1975.04 740.482,1964.92 727.33,1957.46C714.201,1950.02 700.023,1946.33 684.865,1946.33M767.207,1924.95L795.096,1924.95L795.096,2097.75C795.096,2128.18 792.462,2150.45 787.145,2164.51C779.823,2184.47 767.136,2199.79 749.064,2210.57C730.991,2221.32 709.281,2226.73 683.862,2226.73C665.276,2226.73 648.58,2224.09 633.749,2218.82C618.917,2213.58 606.885,2206.51 597.556,2197.63C588.275,2188.79 579.693,2175.82 571.858,2158.78L602.174,2158.78C610.405,2173.14 621.062,2183.7 634.098,2190.63C647.11,2197.56 663.271,2201.01 682.58,2201.01C701.608,2201.01 717.652,2197.44 730.759,2190.37C743.887,2183.31 753.238,2174.42 758.788,2163.7C764.408,2152.99 767.207,2135.64 767.207,2111.72L767.207,2100.59C756.689,2113.84 743.864,2124.03 728.706,2131.16C713.525,2138.28 697.434,2141.8 680.387,2141.8C660.427,2141.8 641.701,2136.88 624.14,2126.97C606.557,2117.1 593.032,2103.74 583.425,2087C573.864,2070.23 569.059,2051.88 569.059,2031.8C569.059,2011.75 574.051,1993.02 584.031,1975.64C594.011,1958.34 607.817,1944.61 625.447,1934.51C643.03,1924.46 661.638,1919.35 681.204,1919.35C697.434,1919.35 712.546,1922.73 726.607,1929.45C740.622,1936.17 754.171,1947.22 767.207,1962.61L767.207,1924.95Z" style="fill:rgb(3,4,4);fill-rule:nonzero;"/>
        </g>
        <g transform="matrix(0.98783,0,0,0.992729,12.2289,-80.6141)">
            <rect x="858.876" y="1841.25" width="27.891" height="300.543" style="fill:rgb(3,4,4);fill-rule:nonzero;"/>
        </g>
        <g transform="matrix(0.98783,0,0,0.992729,12.2289,-80.6141)">
            <path d="M1057.49,1946.33C1041.96,1946.33 1027.62,1950.13 1014.47,1957.71C1001.34,1965.34 990.888,1976.09 983.123,1989.92C975.357,2003.7 971.486,2018.27 971.486,2033.66C971.486,2048.94 975.381,2063.56 983.24,2077.53C991.051,2091.43 1001.55,2102.3 1014.79,2110.06C1027.97,2117.78 1042.17,2121.72 1057.26,2121.72C1072.55,2121.72 1086.99,2117.8 1100.7,2110.15C1114.37,2102.43 1124.86,2092.03 1132.23,2078.88C1139.6,2065.68 1143.28,2050.92 1143.28,2034.46C1143.28,2009.41 1135.03,1988.45 1118.47,1971.57C1101.98,1954.73 1081.62,1946.33 1057.49,1946.33M1168.98,1924.95L1168.98,2141.8L1141.49,2141.8L1141.49,2104.56C1129.8,2118.78 1116.7,2129.46 1102.15,2136.64C1087.57,2143.83 1071.64,2147.37 1054.39,2147.37C1023.7,2147.37 997.488,2136.27 975.754,2114C954.02,2091.78 943.176,2064.66 943.176,2032.78C943.176,2001.55 954.136,1974.83 976.034,1952.65C997.977,1930.48 1024.35,1919.35 1055.2,1919.35C1073,1919.35 1089.11,1923.18 1103.55,1930.76C1117.93,1938.31 1130.6,1949.67 1141.49,1964.85L1141.49,1924.95L1168.98,1924.95Z" style="fill:rgb(3,4,4);fill-rule:nonzero;"/>
        </g>
        <g transform="matrix(0.98783,0,0,0.992729,12.2289,-80.6141)">
            <path d="M1290.34,1839.25C1296.73,1839.25 1302.21,1841.49 1306.73,1845.99C1311.23,1850.56 1313.49,1856.02 1313.49,1862.38C1313.49,1868.77 1311.23,1874.18 1306.73,1878.71C1302.21,1883.23 1296.73,1885.49 1290.34,1885.49C1283.99,1885.49 1278.54,1883.23 1274.01,1878.71C1269.49,1874.18 1267.25,1868.77 1267.25,1862.38C1267.25,1856.02 1269.49,1850.56 1274.01,1845.99C1278.54,1841.49 1283.99,1839.25 1290.34,1839.25M1235.77,1924.95L1263.66,1924.95L1263.66,2141.8L1235.77,2141.8L1235.77,1924.95ZM1209.04,1839.25C1215.43,1839.25 1220.89,1841.49 1225.39,1845.99C1229.89,1850.56 1232.18,1856.02 1232.18,1862.38C1232.18,1868.77 1229.89,1874.18 1225.39,1878.71C1220.89,1883.23 1215.43,1885.49 1209.04,1885.49C1202.65,1885.49 1197.22,1883.23 1192.72,1878.71C1188.2,1874.18 1185.93,1868.77 1185.93,1862.38C1185.93,1856.02 1188.2,1850.56 1192.72,1845.99C1197.22,1841.49 1202.65,1839.25 1209.04,1839.25" style="fill:rgb(3,4,4);fill-rule:nonzero;"/>
        </g>
        <g transform="matrix(0.98783,0,0,0.992729,12.2289,-80.6141)">
            <path d="M1434.38,1946.33C1418.85,1946.33 1404.51,1950.13 1391.36,1957.71C1378.25,1965.34 1367.8,1976.09 1360.02,1989.92C1352.25,2003.7 1348.38,2018.27 1348.38,2033.66C1348.38,2048.94 1352.27,2063.56 1360.11,2077.53C1367.92,2091.43 1378.44,2102.3 1391.68,2110.06C1404.88,2117.78 1419.01,2121.72 1434.17,2121.72C1449.42,2121.72 1463.9,2117.8 1477.57,2110.15C1491.21,2102.43 1501.73,2092.03 1509.12,2078.88C1516.49,2065.68 1520.15,2050.92 1520.15,2034.46C1520.15,2009.41 1511.92,1988.45 1495.36,1971.57C1478.85,1954.73 1458.52,1946.33 1434.38,1946.33M1545.87,1924.95L1545.87,2141.8L1518.38,2141.8L1518.38,2104.56C1506.69,2118.78 1493.54,2129.46 1479.04,2136.64C1464.49,2143.83 1448.54,2147.37 1431.28,2147.37C1400.59,2147.37 1374.38,2136.27 1352.65,2114C1330.91,2091.78 1320.05,2064.66 1320.05,2032.78C1320.05,2001.55 1331.01,1974.83 1352.93,1952.65C1374.85,1930.48 1401.24,1919.35 1432.07,1919.35C1449.89,1919.35 1465.98,1923.18 1480.44,1930.76C1494.83,1938.31 1507.44,1949.67 1518.38,1964.85L1518.38,1924.95L1545.87,1924.95Z" style="fill:rgb(3,4,4);fill-rule:nonzero;"/>
        </g>
        <g transform="matrix(0.98783,0,0,0.992729,12.2289,-80.6141)">
            <path d="M1774.12,1964.85C1788.4,1953.8 1799.08,1942.98 1806.31,1932.37C1811.34,1924.79 1813.91,1918.05 1813.91,1912.19C1813.91,1905.41 1810.64,1899.58 1803.97,1894.66C1797.4,1889.74 1788.63,1887.26 1777.72,1887.26C1767.32,1887.26 1758.83,1889.81 1752.3,1894.84C1745.77,1899.95 1742.55,1905.9 1742.55,1912.8C1742.55,1918.09 1743.81,1923.13 1746.56,1927.75C1753.09,1939.06 1762.28,1951.39 1774.12,1964.85M1770.58,2003.63C1745.63,2022.38 1729.35,2037.3 1721.65,2048.43C1713.91,2059.5 1710,2069.81 1710,2079.23C1710,2090.38 1714.75,2100.24 1724.17,2108.82C1733.64,2117.41 1745.21,2121.72 1758.92,2121.72C1769.32,2121.72 1779.54,2119.55 1789.47,2115.28C1805.19,2108.52 1823.24,2097 1843.52,2080.75L1797.31,2033.17C1789.28,2024.76 1780.42,2014.94 1770.58,2003.63M1902.76,2033.38L1922.62,2054.42C1909.89,2065.68 1897.81,2075.48 1886.34,2083.66C1894.27,2091.01 1904.67,2101.08 1917.49,2113.91C1927.61,2124.01 1936.34,2133.31 1943.61,2141.8L1902.71,2141.8L1863.9,2101.74C1839.42,2121.39 1819.55,2134.22 1804.3,2140.21C1789,2146.23 1772.87,2149.17 1755.84,2149.17C1733.27,2149.17 1715.17,2142.71 1701.46,2129.76C1687.75,2116.78 1680.99,2100.62 1680.99,2081.19C1680.99,2066.62 1685.56,2051.95 1694.79,2037.26C1704.03,2022.54 1722.82,2003.98 1751.18,1981.5C1735.18,1962.12 1724.87,1947.83 1720.26,1938.54C1715.73,1929.33 1713.35,1920.54 1713.35,1912.15C1713.35,1897.57 1719.09,1885.49 1730.38,1875.93C1743.34,1864.76 1759.57,1859.21 1779.02,1859.21C1791.24,1859.21 1802.34,1861.66 1812.46,1866.53C1822.58,1871.48 1830.28,1878.1 1835.6,1886.36C1840.91,1894.7 1843.57,1903.54 1843.57,1912.8C1843.57,1922.64 1840.17,1933.06 1833.17,1944.21C1826.27,1955.26 1812.65,1969.49 1792.27,1986.75L1836.76,2033.38L1865.82,2062.91C1881.49,2051.46 1893.8,2041.62 1902.76,2033.38" style="fill:rgb(3,4,4);fill-rule:nonzero;"/>
        </g>
        <g transform="matrix(0.98783,0,0,0.992729,12.2289,-80.6141)">
            <path d="M2273.82,1970L2251.66,1983.81C2232.54,1958.34 2206.42,1945.7 2173.4,1945.7C2147.01,1945.7 2125.09,1954.17 2107.55,1971.15C2090.2,1988.17 2081.43,2008.78 2081.43,2033.06C2081.43,2048.87 2085.44,2063.77 2093.46,2077.72C2101.53,2091.64 2112.49,2102.43 2126.48,2110.15C2140.52,2117.8 2156.19,2121.72 2173.59,2121.72C2205.44,2121.72 2231.42,2108.96 2251.66,2083.59L2273.82,2098.17C2263.37,2113.77 2249.47,2125.87 2232.03,2134.52C2214.54,2143.08 2194.58,2147.37 2172.33,2147.37C2138,2147.37 2109.55,2136.48 2086.98,2114.7C2064.41,2092.94 2053.12,2066.41 2053.12,2035.18C2053.12,2014.19 2058.39,1994.65 2069.02,1976.69C2079.56,1958.67 2093.98,1944.61 2112.49,1934.51C2130.91,1924.46 2151.62,1919.35 2174.47,1919.35C2188.84,1919.35 2202.69,1921.59 2216.03,1925.95C2229.37,1930.36 2240.75,1936.07 2250.03,1943.09C2259.31,1950.18 2267.29,1959.11 2273.82,1970" style="fill:rgb(3,4,4);fill-rule:nonzero;"/>
        </g>
        <g transform="matrix(0.98783,0,0,0.992729,12.2289,-80.6141)">
            <path d="M2438.08,1946.68C2414.85,1946.68 2394.94,1955.26 2378.29,1972.38C2361.64,1989.57 2353.24,2010.28 2353.24,2034.6C2353.24,2050.29 2357.07,2064.91 2364.67,2078.44C2372.27,2091.96 2382.58,2102.48 2395.5,2109.83C2408.47,2117.17 2422.55,2120.88 2438.08,2120.88C2453.52,2120.88 2467.74,2117.17 2480.66,2109.83C2493.58,2102.48 2503.89,2091.96 2511.44,2078.44C2519.14,2064.91 2522.92,2050.29 2522.92,2034.6C2522.92,2010.28 2514.57,1989.57 2497.83,1972.38C2481.03,1955.26 2461.17,1946.68 2438.08,1946.68M2438.17,1919.35C2471.57,1919.35 2499.27,1931.5 2521.24,1955.66C2541.2,1977.72 2551.18,2003.82 2551.18,2033.99C2551.18,2064.31 2540.59,2090.75 2519.61,2113.39C2498.48,2136.11 2471.33,2147.37 2438.17,2147.37C2404.87,2147.37 2377.68,2136.11 2356.65,2113.39C2335.47,2090.75 2324.93,2064.31 2324.93,2033.99C2324.93,2003.96 2334.96,1977.91 2354.92,1955.82C2376.89,1931.53 2404.64,1919.35 2438.17,1919.35" style="fill:rgb(3,4,4);fill-rule:nonzero;"/>
        </g>
        <g transform="matrix(0.98783,0,0,0.992729,6.97316,16.1909)">
            <path d="M1351.95,697.217C1322.19,702.464 1292.3,711.698 1263.14,724.501C1256.71,727.346 1250.37,730.378 1244.12,733.549C1231.27,740.055 1219.65,746.771 1208.44,754.071L1205.78,755.749C1188.89,766.803 1172.66,779.395 1157.6,793.014L1154.43,795.859C1139.83,809.338 1126.03,824.193 1113.53,839.886L1110.63,843.617C1103.27,853.155 1096.27,862.996 1089.74,873.28L1087.17,877.128C1083.93,882.422 1080.64,888.042 1077.45,893.708L1075.47,897.486C1069.68,908.096 1064.88,918.171 1060.4,928.338L1056.91,936.663C1054.71,942.05 1052.47,947.647 1050.52,953.43C1050.52,953.43 1044.57,971.363 1043.71,974.488C1040.26,986.31 1037.18,999.393 1034.43,1014.64L1029.58,1041.6L1378.86,1041.6L1378.86,692.366L1351.95,697.217ZM1421.49,1560.44C1417.24,1560.44 1413.02,1560.14 1408.8,1559.97L1405.51,1559.79C1396.49,1559.32 1387.58,1558.81 1378.86,1558.01L1378.86,1126.76L1029.48,1126.76L1034.29,1153.63C1056.53,1277.6 1136.57,1382.67 1249.76,1437.66L1249.76,1527.75C1066.37,1457.32 945.205,1282.75 945.205,1084.07C945.205,846.253 1123.06,643.488 1358.92,612.473L1368.64,611.541C1376.11,610.701 1380.96,610.142 1385.81,609.815L1393.36,609.069L1406.42,608.486L1408.08,608.3C1412.62,608.159 1416.96,607.926 1421.44,607.926C1437.76,607.926 1454.92,609.046 1474.93,611.331L1496.39,614.736C1517.89,618.117 1539.86,623.341 1563.55,630.733L1575.81,634.604C1585.8,638.055 1595.78,641.646 1605.57,645.821L1612.52,648.899C1621.24,652.723 1630.57,657.014 1639.52,661.678L1647.08,665.852C1655.38,670.306 1663.82,675.064 1671.98,680.124C1674.04,681.29 1680.15,685.441 1680.15,685.441C1687.84,690.384 1695.44,695.445 1702.77,700.832L1711.81,707.758C1718.48,712.864 1725.15,718.112 1731.59,723.708L1741.34,732.383C1747.07,737.607 1753.04,743.087 1758.78,748.87C1760.97,751.062 1768.3,758.921 1768.3,758.921C1773.66,764.541 1778.88,770.184 1783.92,776.107C1786.25,778.766 1788.4,781.471 1790.54,784.176L1793.25,787.58C1797.96,793.434 1802.48,799.217 1806.87,805.163C1809.06,808.195 1815.77,818.083 1815.77,818.083L1817.45,820.554C1820.86,825.615 1824.31,830.698 1827.48,835.922C1829.67,839.42 1831.63,842.988 1833.54,846.486L1835.74,850.147C1839.23,856.234 1842.68,862.297 1845.81,868.5C1848.05,872.954 1850.15,877.408 1852.15,881.862L1853.97,885.733C1856.67,891.329 1859.19,896.926 1861.57,902.663C1863.72,907.886 1865.77,913.297 1867.68,918.613C1870.11,925.283 1872.58,931.696 1874.73,938.272C1876.12,942.773 1877.48,947.623 1878.83,952.38L1879.67,955.085C1881.44,961.685 1883.31,968.308 1884.89,975.071C1886.2,980.597 1887.32,986.52 1888.53,992.35C1888.72,993.539 1889,994.682 1889.18,995.825L1804.95,995.825L1800.94,978.475L1800.29,978.475C1786.44,928.804 1763.26,882.934 1731.08,841.892C1724.59,833.94 1719.18,827.434 1713.68,821.254C1710.79,818.083 1707.71,814.864 1704.63,811.786L1702.3,809.384C1698.99,805.863 1696.89,803.718 1694.84,801.689C1688.5,795.649 1681.87,789.749 1675.2,784.083C1649.83,762.698 1622.41,744.905 1593.21,730.704L1593.21,730.331L1579.55,724.244C1550.75,711.629 1520.94,702.534 1490.95,697.217L1464.07,692.366L1464.07,1475.93L1490.95,1471.12C1645.96,1443.52 1769.93,1324.63 1804.86,1172.49L1889.46,1172.49C1852.57,1367.35 1694.37,1522.2 1496.39,1553.58L1474.93,1556.92C1454.69,1559.25 1437.53,1560.44 1421.49,1560.44" style="fill:rgb(3,4,4);fill-rule:nonzero;"/>
        </g>
    </g>
</svg>
